# AST/ASF file generated using VICON BodyLanguage
# -----------------------------------------------
:version 1.10
:name VICON
:units
  mass 1.0
  length 0.45
  angle deg
:documentation
   .ast/.asf automatically generated from VICON data using
   VICON BodyBuilder and BodyLanguage model FoxedUp or BRILLIANT.MOD
:root
   order TX TY TZ RX RY RZ
   axis XYZ
   position 0 0 0  
   orientation 0 0 0 
:bonedata
  begin
     id 1 
     name lhipjoint
     direction 0.653368 -0.678499 0.335782 
     length 2.51848 
     axis 0 0 0  XYZ
  end
  begin
     id 2 
     name lfemur
     direction 0.34202 -0.939693 0  
     length 6.57749  
     axis 0 0 20  XYZ
    dof rx ry rz
    limits (-160.0 20.0)
           (-70.0 70.0)
           (-60.0 70.0)
  end
  begin
     id 3 
     name ltibia
     direction 0.34202 -0.939693 0   
     length 7.94618   
     axis 0 0 20   XYZ
    dof rx
    limits (-10.0 170.0)
  end
  begin
     id 4 
     name lfoot
     direction 0.0811271 -0.222895 0.971461   
     length 2.31339   
     axis -90 7.62852e-016 20   XYZ
    dof rx rz
    limits (-45.0 90.0)
           (-70.0 20.0)
  end
  begin
     id 5 
     name ltoes
     direction 1.53568e-011 -4.21885e-011 1   
     length 1.15935   
     axis -90 7.62852e-016 20   XYZ
    dof rx
    limits (-90.0 20.0)
  end
  begin
     id 6 
     name rhipjoint
     direction -0.640058 -0.688614 0.340788   
     length 2.48149  
     axis 0 0 0  XYZ 
  end
  begin
     id 7 
     name rfemur
     direction -0.34202 -0.939693 0   
     length 6.57875   
     axis 0 0 -20   XYZ
    dof rx ry rz
    limits (-160.0 20.0)
           (-70.0 70.0)
           (-70.0 60.0)
  end
  begin
     id 8 
     name rtibia
     direction -0.34202 -0.939693 0   
     length 7.977   
     axis 0 0 -20   XYZ
    dof rx
    limits (-10.0 170.0)
 end
 begin
     id 9 
     name rfoot
     direction -0.0979793 -0.269196 0.958089   
     length 2.19857  
     axis -90 -7.62852e-016 -20   XYZ
    dof rx rz
    limits (-45.0 90.0)
           (-20.0 70.0)
  end
  begin
     id 10 
     name rtoes
     direction -1.53556e-011 -4.21868e-011 1   
     length 1.09838   
     axis -90 -7.62852e-016 -20   XYZ
    dof rx
    limits (-90.0 20.0)
  end
  begin
     id 11 
     name lowerback
     direction 0.0149039 0.998517 -0.0523597   
     length 2.10809   
     axis 0 0 0   XYZ
    dof rx ry rz
    limits (-20.0 45.0)
           (-30.0 30.0)
           (-30.0 30.0)
  end
  begin
     id 12 
     name upperback
     direction -0.00882659 0.999418 -0.0329624   
     length 2.1102   
     axis 0 0 0   XYZ
    dof rx ry rz
    limits (-20.0 45.0)
           (-30.0 30.0)
           (-30.0 30.0)
  end
  begin
     id 13 
     name thorax
     direction -0.0165585 0.999826 -0.0085833   
     length 2.11039   
     axis 0 0 0   XYZ
    dof rx ry rz
    limits (-20.0 45.0)
           (-30.0 30.0)
           (-30.0 30.0)
  end
  begin
     id 14 
     name lowerneck
     direction -0.0130877 0.999911 0.00260353   
     length 1.73253   
     axis 0 0 0   XYZ
    dof rx ry rz
    limits (-20.0 45.0)
           (-30.0 30.0)
           (-30.0 30.0)
  end
  begin
     id 15 
     name upperneck
     direction -0.0348454 0.928205 -0.370435   
     length 1.66692   
     axis 0 0 0   XYZ
    dof rx ry rz
    limits (-20.0 45.0)
           (-30.0 30.0)
           (-30.0 30.0)
  end
  begin
     id 16
     name head
     direction -0.00807754 0.992494 -0.122026  
     length 1.72765  
     axis 0 0 0   XYZ
    dof rx ry rz
    limits (-20.0 45.0)
           (-30.0 30.0)
           (-30.0 30.0)
  end
  begin
     id 17 
     name lclavicle
     direction 0.987582 0.144023 0.0627671  
     length 3.49235  
     axis 0 0 0   XYZ
    dof ry rz
    limits (-20.0 10.0)
           (0.0 20.0)
  end
  begin
     id 18 
     name lhumerus
     direction 1 -4.48958e-011 -1.45183e-018   
     length 5.41917   
     axis 180 -30 -90   XYZ
    dof rx ry rz
    limits (-60.0 90.0)
           (-90.0 90.0)
           (-90.0 90.0)
  end
  begin
     id 19
     name lradius
     direction 1 -4.48999e-011 5.75106e-027   
     length 2.44373   
     axis 180 -30 -90   XYZ
    dof rx
    limits (-10.0 170.0)
  end
  begin
     id 20
     name lwrist
     direction 1 -4.48987e-011 1.53461e-026   
     length 1.22186   
     axis -1.09697e-014 90 90   XYZ
    dof ry
    limits (-180.0 0.0)
 end
  begin
     id 21 
     name lhand
     direction 1 -4.48881e-011 3.06923e-026   
     length 0.727502   
     axis -1.95843e-014 90 90   XYZ
    dof rx rz
    limits (-90.0 90.0)
           (-45.0 45.0)
  end
  begin
     id 22 
     name lfingers
     direction 1 -4.48907e-011 6.13845e-026   
     length 0.586531   
     axis -3.91686e-014 90 90   XYZ
    dof rx
    limits (0.0 90.0)
  end
  begin
     id 23
     name lthumb
     direction 0.707107 -6.3487e-011 0.707107   
     length 0.842145   
     axis -90 45 2.85299e-015   XYZ
    dof rx rz
    limits (-45.0 45.0)
           (-45.0 45.0)
  end
  begin
     id 24 
     name rclavicle
     direction -0.980998 0.169556 0.0943023   
     length 3.29272  
     axis 0 0 0   XYZ 
    dof ry rz
    limits (-10.0 20.0)
           (-20.0 0.0)
  end
  begin
     id 25 
     name rhumerus
     direction -1 -1.83355e-005 2.45537e-005  
     length 5.58976   
     axis 180 30 90   XYZ
    dof rx ry rz
    limits (-90.0 60.0)
           (-90.0 90.0)
           (-90.0 90.0)
  end
  begin
     id 26 
     name rradius
     direction -1 -4.48967e-011 5.97228e-027   
     length 2.4806   
     axis 180 30 90   XYZ
    dof rx
    limits (-10.0 170.0)
  end
  begin
     id 27 
     name rwrist
     direction -1 -4.48963e-011 1.53461e-026   
     length 1.2403   
     axis -1.09697e-014 -90 -90   XYZ
    dof ry
    limits (-180.0 0.0)
  end
  begin
     id 28
     name rhand
     direction -1 -4.48881e-011 3.06923e-026   
     length 0.816009   
     axis -1.95843e-014 -90 -90   XYZ
    dof rx rz
    limits (-90.0 90.0)
           (-45.0 45.0)
  end
  begin
     id 29
     name rfingers
     direction -1 -4.49018e-011 6.13845e-026   
     length 0.657887   
     axis -3.91686e-014 -90 -90   XYZ
    dof rx
    limits (0.0 90.0)
  end
  begin
     id 30
     name rthumb
     direction -0.707107 -6.34872e-011 0.707107   
     length 0.944599   
     axis -90 -45 -2.85299e-015   XYZ
    dof rx rz
    limits (-45.0 45.0)
           (-45.0 45.0)
  end
:hierarchy
  begin
    root lhipjoint rhipjoint lowerback
    lhipjoint lfemur
    lfemur ltibia
    ltibia lfoot
    lfoot ltoes
    rhipjoint rfemur
    rfemur rtibia
    rtibia rfoot
    rfoot rtoes
    lowerback upperback
    upperback thorax
    thorax lowerneck lclavicle rclavicle
    lowerneck upperneck
    upperneck head
    lclavicle lhumerus
    lhumerus lradius
    lradius lwrist
    lwrist lhand lthumb
    lhand lfingers
    rclavicle rhumerus
    rhumerus rradius
    rradius rwrist
    rwrist rhand rthumb
    rhand rfingers
  end

#!OML:ASF F:\VICON\USERDATA\INSTALL\rory3\rory3.ASF
:FULLY-SPECIFIED
:DEGREES
85
root -3.48599 17.2745 14.564 -157.892 -18.9139 -175.78
lowerback -13.8703 1.78681 -2.36938
upperback -6.15973 2.00521 0.229028
thorax 1.18578 0.76178 1.85752
lowerneck -11.8742 1.59135 0.929268
upperneck 43.9973 -5.40584 2.8881
head 18.8326 -3.42319 -0.399668
rclavicle 3.45388e-014 -1.35174e-014
rhumerus -46.7797 -23.9518 -61.7123
rradius 5.91782
rwrist 20.2557
rhand -8.23476 20.5042
rfingers 7.12502
rthumb 17.6829 -8.71176
lclavicle 3.45388e-014 -1.35174e-014
lhumerus -45.0998 10.482 71.158
lradius 48.1408
lwrist 0.328772
lhand 0.787442 16.5177
lfingers 7.12502
lthumb 26.3444 44.7079
rfemur -11.0899 -7.97363 29.8727
rtibia 32.4404
rfoot -9.53752 -26.9211
rtoes 5.98889
lfemur -36.0839 -2.93289 -22.8472
ltibia 29.9932
lfoot -45.016 24.0734
ltoes 22.9548
86
root -3.4649 17.2704 14.5782 -157.887 -18.7923 -175.855
lowerback -13.6199 1.7713 -2.40508
upperback -6.21829 1.9813 0.237175
thorax 0.989787 0.753553 1.87481
lowerneck -12.0452 1.60121 0.770562
upperneck 44.0218 -5.36815 2.96167
head 18.9025 -3.41941 -0.332634
rclavicle -7.7526e-015 2.98177e-014
rhumerus -46.8032 -23.7915 -61.7656
rradius 5.95955
rwrist 20.223
rhand -8.36042 20.4406
rfingers 7.12502
rthumb 17.562 -8.78617
lclavicle -7.7526e-015 2.98177e-014
lhumerus -45.0896 10.7609 70.8888
lradius 47.9675
lwrist 0.228992
lhand 0.90078 16.4738
lfingers 7.12502
lthumb 26.4529 44.6477
rfemur -11.1879 -7.63094 29.7819
rtibia 32.1948
rfoot -11.1673 -27.1564
rtoes 6.42242
lfemur -36.1124 -3.19681 -22.77
ltibia 29.9176
lfoot -45.1968 24.0263
ltoes 23.5765
87
root -3.44225 17.2738 14.5935 -157.791 -18.6249 -176.005
lowerback -13.4097 1.57827 -2.59582
upperback -6.17155 1.74975 0.42628
thorax 0.923971 0.648974 2.14267
lowerneck -12.6151 1.74616 0.35229
upperneck 44.1905 -4.97853 2.91602
head 19.1646 -3.32183 -0.21851
rclavicle 8.07066e-014 2.06736e-014
rhumerus -46.2465 -23.2853 -62.0475
rradius 5.93528
rwrist 20.2444
rhand -8.34557 20.3917
rfingers 7.12502
rthumb 17.5763 -8.83383
lclavicle 8.07066e-014 2.06736e-014
lhumerus -45.0946 11.5207 70.7184
lradius 47.9339
lwrist 0.158057
lhand 0.905059 16.7833
lfingers 7.12502
lthumb 26.457 44.9566
rfemur -11.2114 -7.14749 29.5899
rtibia 31.5419
rfoot -12.3904 -27.4379
rtoes 5.74899
lfemur -36.2958 -2.97941 -22.9526
ltibia 30.0525
lfoot -45.1372 23.8471
ltoes 23.8108
88
root -3.41697 17.2754 14.6152 -157.769 -18.7055 -176.085
lowerback -13.3556 1.72635 -2.55285
upperback -6.29528 1.92901 0.239182
thorax 0.763804 0.73305 1.94449
lowerneck -11.97 1.61629 0.625046
upperneck 44.0182 -5.31389 2.97265
head 18.88 -3.42712 -0.290238
rclavicle -1.43622e-014 -3.18055e-015
rhumerus -46.9093 -23.6654 -61.8124
rradius 5.99519
rwrist 20.2409
rhand -8.19085 20.0809
rfingers 7.12502
rthumb 17.7252 -9.1312
lclavicle -1.43622e-014 -3.18055e-015
lhumerus -45.2094 10.6434 70.6525
lradius 48.1606
lwrist 0.50046
lhand 0.730413 17.5547
lfingers 7.12502
lthumb 26.2898 45.7531
rfemur -11.2091 -6.90029 29.5408
rtibia 30.8656
rfoot -13.2929 -27.7964
rtoes 5.12345
lfemur -36.4848 -2.6906 -23.083
ltibia 30.0862
lfoot -44.3803 24.1601
ltoes 23.4724
89
root -3.43642 17.271 14.593 -158.963 -17.994 -175.591
lowerback -12.9795 2.17342 -1.75601
upperback -5.97667 2.48095 0.114857
thorax 0.914621 1.01128 1.4346
lowerneck -11.5511 1.55147 1.00495
upperneck 43.9336 -5.53522 2.91734
head 18.7061 -3.4796 -0.418589
rclavicle -4.52235e-015 4.05521e-014
rhumerus -47.1842 -23.9273 -61.7812
rradius 5.64081
rwrist 20.0941
rhand -8.24712 20.0874
rfingers 7.12502
rthumb 17.671 -9.12958
lclavicle -4.52235e-015 4.05521e-014
lhumerus -45.3754 10.021 70.4551
lradius 48.3518
lwrist 1.01084
lhand 0.510717 17.8828
lfingers 7.12502
lthumb 26.0795 46.1123
rfemur -9.64829 -6.58667 29.3971
rtibia 29.9458
rfoot -13.4877 -27.5852
rtoes 2.16798
lfemur -35.1361 -2.24058 -22.7694
ltibia 30.2845
lfoot -45.6125 23.2649
ltoes 24.7941
90
root -3.42749 17.2588 14.5897 -159.236 -17.5227 -175.686
lowerback -12.9484 2.23899 -1.80659
upperback -5.7947 2.59856 0.0957498
thorax 1.08266 1.07755 1.46126
lowerneck -11.7028 1.63429 1.11085
upperneck 44.0119 -5.42327 2.84676
head 18.7897 -3.42311 -0.456495
rclavicle 3.2054e-014 1.43125e-014
rhumerus -46.9146 -23.8114 -61.927
rradius 5.26763
rwrist 20.145
rhand -8.62019 20.3705
rfingers 7.12502
rthumb 17.312 -8.87845
lclavicle 3.2054e-014 1.43125e-014
lhumerus -45.3694 10.181 70.2829
lradius 48.3136
lwrist 1.44857
lhand 0.28989 17.7093
lfingers 7.12502
lthumb 25.868 45.9698
rfemur -9.10594 -6.06546 29.0207
rtibia 29.0798
rfoot -14.3645 -27.6176
rtoes 1.24017
lfemur -34.9107 -1.82534 -23.0168
ltibia 30.3722
lfoot -45.5549 23.6067
ltoes 24.5184
91
root -3.41547 17.2604 14.6 -159.166 -17.4111 -175.54
lowerback -13.1184 2.18465 -1.52792
upperback -5.63117 2.50693 0.256538
thorax 1.35493 1.03101 1.4691
lowerneck -12.185 1.72309 0.952861
upperneck 44.0709 -5.14123 2.73549
head 18.9504 -3.32436 -0.435736
rclavicle -7.03201e-014 -4.8901e-014
rhumerus -46.3466 -23.5438 -62.1258
rradius 5.27038
rwrist 20.2528
rhand -8.68202 20.226
rfingers 7.12502
rthumb 17.2525 -9.02821
lclavicle -7.03201e-014 -4.8901e-014
lhumerus -45.2412 10.6578 70.2071
lradius 48.2968
lwrist 1.78601
lhand 0.0742818 17.6303
lfingers 7.12502
lthumb 25.6615 45.9208
rfemur -9.09668 -5.7179 29.027
rtibia 28.1214
rfoot -15.1835 -27.6409
rtoes 2.09199
lfemur -35.1236 -1.55597 -22.9153
ltibia 30.5333
lfoot -45.5777 23.2365
ltoes 24.8226
92
root -3.40149 17.2627 14.6172 -158.947 -17.2372 -175.737
lowerback -13.2918 2.67305 -1.27899
upperback -5.90888 3.10163 -0.313701
thorax 1.18273 1.30388 0.81944
lowerneck -11.1862 1.38545 1.44479
upperneck 43.6902 -5.90072 2.96743
head 18.4564 -3.54979 -0.524658
rclavicle 2.98177e-014 9.14409e-015
rhumerus -47.675 -24.4701 -61.6491
rradius 5.45963
rwrist 20.301
rhand -8.69879 20.332
rfingers 7.12502
rthumb 17.2364 -8.92354
lclavicle 2.98177e-014 9.14409e-015
lhumerus -45.2323 9.13314 70.0366
lradius 48.2282
lwrist 1.97025
lhand 0.0308491 17.4999
lfingers 7.12502
lthumb 25.6199 45.7964
rfemur -9.29302 -5.44855 28.6747
rtibia 27.3057
rfoot -15.6869 -27.834
rtoes 1.09022
lfemur -35.4019 -1.18994 -23.2512
ltibia 30.552
lfoot -45.2328 23.3838
ltoes 24.2799
93
root -3.37999 17.2641 14.6346 -158.843 -17.098 -175.836
lowerback -13.1912 2.4781 -1.4059
upperback -5.86004 2.85946 -0.126546
thorax 1.16852 1.1902 1.04864
lowerneck -11.6047 1.49492 1.02931
upperneck 43.7161 -5.56079 2.96778
head 18.5851 -3.46159 -0.394746
rclavicle 1.2424e-015 -1.86858e-014
rhumerus -47.0522 -23.9795 -61.974
rradius 5.32069
rwrist 20.355
rhand -8.86797 20.6432
rfingers 7.12502
rthumb 17.0735 -8.62657
lclavicle 1.2424e-015 -1.86858e-014
lhumerus -45.3427 9.94347 69.7741
lradius 48.1609
lwrist 1.92261
lhand 0.005833 17.1653
lfingers 7.12502
lthumb 25.596 45.4653
rfemur -9.36831 -5.09855 28.4663
rtibia 26.4239
rfoot -16.211 -28.1161
rtoes -0.753126
lfemur -35.6013 -0.817396 -23.4373
ltibia 30.5808
lfoot -44.9322 23.3542
ltoes 24.1225
94
root -3.34733 17.2652 14.643 -159.046 -17.1209 -175.665
lowerback -12.6721 2.4237 -1.22126
upperback -6.04513 2.74658 -0.0436099
thorax 0.704909 1.13265 0.992382
lowerneck -11.7039 1.65444 0.876875
upperneck 44.0596 -5.48189 3.10951
head 18.8435 -3.46387 -0.304628
rclavicle 2.67365e-014 3.61788e-014
rhumerus -47.3497 -23.6251 -62.0393
rradius 5.5861
rwrist 20.3259
rhand -8.73624 20.2696
rfingers 7.12502
rthumb 17.2003 -8.98912
lclavicle 2.67365e-014 3.61788e-014
lhumerus -45.7696 10.2978 69.2531
lradius 47.9713
lwrist 1.77232
lhand -0.084192 16.861
lfingers 7.12502
lthumb 25.5097 45.1734
rfemur -9.16696 -4.40512 28.6307
rtibia 25.4928
rfoot -17.0269 -28.6075
rtoes -1.97226
lfemur -35.5442 -0.645546 -23.1753
ltibia 30.5843
lfoot -44.4617 23.8491
ltoes 23.2577
95
root -3.3261 17.2661 14.6561 -159.03 -17.1409 -176.067
lowerback -12.8023 2.36427 -1.59427
upperback -5.93206 2.72448 -0.0647497
thorax 0.875043 1.13105 1.18386
lowerneck -11.5872 1.66216 0.963413
upperneck 44.0703 -5.43259 2.95299
head 18.8046 -3.45356 -0.383536
rclavicle -2.49972e-014 1.11319e-014
rhumerus -47.1546 -23.739 -61.977
rradius 5.32173
rwrist 20.25
rhand -8.82858 20.0816
rfingers 7.12502
rthumb 17.1114 -9.18485
lclavicle -2.49972e-014 1.11319e-014
lhumerus -45.6204 10.5962 69.0981
lradius 47.5703
lwrist 1.63249
lhand -0.284179 17.1816
lfingers 7.12502
lthumb 25.3182 45.5211
rfemur -8.93678 -4.00271 28.1422
rtibia 24.4366
rfoot -18.0636 -28.8054
rtoes -2.05121
lfemur -35.5258 -0.438045 -23.6301
ltibia 30.6416
lfoot -43.619 24.4588
ltoes 21.4708
96
root -3.30047 17.263 14.6713 -158.949 -17.1172 -176.2
lowerback -12.9926 2.52379 -1.61625
upperback -5.92273 2.94305 -0.25661
thorax 0.989241 1.23547 1.03338
lowerneck -11.2196 1.4785 1.46829
upperneck 43.904 -5.74935 2.72849
head 18.5814 -3.53085 -0.625708
rclavicle -1.10325e-014 1.03368e-014
rhumerus -47.4616 -24.2313 -61.8314
rradius 5.23192
rwrist 20.3094
rhand -8.95187 20.3168
rfingers 7.12502
rthumb 16.9928 -8.95991
lclavicle -1.10325e-014 1.03368e-014
lhumerus -45.3597 10.1094 69.0408
lradius 47.3497
lwrist 1.80454
lhand -0.464901 17.8743
lfingers 7.12502
lthumb 25.145 46.2383
rfemur -8.89002 -3.36736 27.9643
rtibia 23.3936
rfoot -18.6309 -29.2196
rtoes -1.87403
lfemur -35.6751 -0.391499 -23.7045
ltibia 30.6791
lfoot -43.6584 24.2702
ltoes 21.7017
97
root -3.29044 17.2622 14.6968 -158.937 -17.3357 -175.916
lowerback -13.0315 2.17012 -1.17299
upperback -5.66999 2.44029 0.228502
thorax 1.28832 0.991009 1.22791
lowerneck -11.916 1.63298 1.04958
upperneck 43.8655 -5.08131 2.34429
head 18.7151 -3.33728 -0.61569
rclavicle 3.80921e-014 3.1408e-014
rhumerus -46.2966 -23.3668 -62.2268
rradius 5.33024
rwrist 20.3702
rhand -8.83671 20.2887
rfingers 7.12502
rthumb 17.1036 -8.97843
lclavicle 3.80921e-014 3.1408e-014
lhumerus -45.4564 11.3927 68.9946
lradius 47.386
lwrist 1.95108
lhand -0.618333 17.8615
lfingers 7.12502
lthumb 24.998 46.246
rfemur -8.95981 -3.24455 28.1601
rtibia 22.4046
rfoot -18.7669 -29.2844
rtoes -1.86041
lfemur -35.9015 -0.265848 -23.4371
ltibia 30.6603
lfoot -43.5858 23.9571
ltoes 22.3964
